<svg xmlns="http://www.w3.org/2000/svg"  viewBox="0 0 100 100" width="200px" height="200px"><circle cx="13" cy="29" r="2" fill="#ee3e54"/><circle cx="77" cy="13" r="1" fill="#f1bc19"/><circle cx="50" cy="50" r="37" fill="#fce0a2"/><circle cx="83" cy="15" r="4" fill="#f1bc19"/><circle cx="87" cy="24" r="2" fill="#ee3e54"/><circle cx="81" cy="76" r="2" fill="#fbcd59"/><circle cx="15" cy="63" r="4" fill="#fbcd59"/><circle cx="25" cy="87" r="2" fill="#ee3e54"/><circle cx="18.5" cy="53.5" r="2.5" fill="#fff"/><circle cx="21" cy="67" r="1" fill="#f1bc19"/><circle cx="80" cy="34" r="1" fill="#fff"/><circle cx="50" cy="50" r="23.958" fill="#fff"/><path fill="#78a0cf" d="M50,26c-13.23,0-24,10.77-24,24s10.77,24,24,24s24-10.77,24-24S63.23,26,50,26z M50,70 c-11.03,0-20-8.97-20-20s8.97-20,20-20s20,8.97,20,20S61.03,70,50,70z"/><path fill="#472b29" d="M50,26.4c13.013,0,23.6,10.587,23.6,23.6S63.013,73.6,50,73.6S26.4,63.013,26.4,50 S36.987,26.4,50,26.4 M50,25c-13.807,0-25,11.193-25,25s11.193,25,25,25s25-11.193,25-25S63.807,25,50,25L50,25z"/><path fill="#836f61" d="M59.266,44.973l-4.04,0.536c0,0,0.611-5.149-6.115-5.149c-3.422,0-4.721,2.059-4.721,3.613 c0,1.898,1.751,2.794,7.216,3.971c5.466,1.177,8.127,3.217,8.127,6.82s-2.636,7.164-9.741,7.164c-6.417,0-9.27-2.816-10.316-8.101 c2.234-0.312,4.206-0.6,4.206-0.6s-0.709,5.822,6.084,5.822c3.089,0,5.871-0.898,5.871-3.828c0-2.93-2.829-3.507-6.298-4.131 c-3.47-0.625-8.912-1.85-8.912-7.062c0-4.623,5.038-6.701,8.436-6.701C56.5,37.327,59.266,41.456,59.266,44.973z"/><path fill="#472b29" d="M49.992,62.179c-6.168,0-9.425-2.561-10.561-8.302c-0.014-0.067,0.001-0.137,0.042-0.193 c0.04-0.056,0.101-0.093,0.169-0.103c2.233-0.312,4.204-0.601,4.205-0.601c0.076-0.01,0.155,0.014,0.21,0.069 c0.056,0.054,0.083,0.131,0.074,0.208c-0.002,0.022-0.25,2.251,1.174,3.855c0.994,1.12,2.562,1.687,4.662,1.687 c2.564,0,5.621-0.621,5.621-3.579c0-2.601-2.302-3.203-6.093-3.885c-2.959-0.533-9.117-1.641-9.117-7.308 c0-4.742,5.183-6.952,8.686-6.952c7.221,0,10.453,3.966,10.453,7.896c0,0.125-0.093,0.231-0.217,0.248l-4.04,0.536 c-0.073,0.009-0.152-0.016-0.208-0.07c-0.055-0.054-0.082-0.131-0.073-0.207c0.002-0.018,0.192-1.81-1.042-3.195 c-0.991-1.111-2.614-1.675-4.825-1.675c-3.072,0-4.471,1.744-4.471,3.363c0,1.697,1.64,2.568,7.02,3.727 c5.757,1.24,8.325,3.418,8.325,7.065C59.984,58.349,57.359,62.179,49.992,62.179z M39.975,54.039 c1.138,5.352,4.148,7.64,10.017,7.64c8.807,0,9.492-5.292,9.492-6.914c0-3.367-2.446-5.395-7.93-6.576 c-5.127-1.104-7.414-1.975-7.414-4.216c0-1.861,1.556-3.863,4.971-3.863c2.363,0,4.114,0.622,5.203,1.848 c1.069,1.203,1.185,2.637,1.178,3.263l3.521-0.467c-0.11-3.361-2.76-7.178-9.949-7.178c-3.301,0-8.186,2.05-8.186,6.452 c0,4.625,4.401,6.041,8.706,6.815c3.345,0.602,6.504,1.171,6.504,4.377c0,2.63-2.174,4.079-6.121,4.079 c-2.251,0-3.947-0.625-5.039-1.859c-1.251-1.413-1.338-3.199-1.315-3.921C43.008,53.607,41.578,53.814,39.975,54.039z"/><path fill="#472b29" d="M39.929,32.64c-0.174,0-0.344-0.091-0.436-0.254c-0.136-0.241-0.051-0.545,0.189-0.682 c1.062-0.6,2.181-1.108,3.326-1.513c0.262-0.089,0.546,0.045,0.638,0.305c0.092,0.261-0.045,0.546-0.305,0.638 c-1.091,0.385-2.156,0.869-3.167,1.44C40.097,32.619,40.013,32.64,39.929,32.64z"/><path fill="#472b29" d="M37.771,66.955c-0.104,0-0.208-0.032-0.298-0.099C32.167,62.907,29,56.606,29,50 c0-6.233,2.744-12.104,7.528-16.11c0.212-0.178,0.528-0.148,0.704,0.063c0.177,0.211,0.149,0.527-0.063,0.704 C32.613,38.472,30,44.064,30,50c0,6.385,2.941,12.237,8.07,16.054c0.222,0.165,0.268,0.478,0.103,0.699 C38.075,66.885,37.924,66.955,37.771,66.955z"/><path fill="#472b29" d="M50,71c-3.208,0-6.289-0.705-9.154-2.095c-0.249-0.121-0.352-0.419-0.231-0.668 s0.419-0.352,0.668-0.231C44.011,69.329,46.944,70,50,70c0.276,0,0.5,0.224,0.5,0.5S50.276,71,50,71z"/><path fill="#472b29" d="M53.684,70.67c-0.237,0-0.448-0.169-0.492-0.411c-0.049-0.272,0.131-0.532,0.403-0.582 c0.675-0.122,1.348-0.281,2.002-0.471c0.265-0.08,0.542,0.075,0.62,0.34s-0.075,0.542-0.34,0.62 c-0.687,0.2-1.394,0.367-2.103,0.496C53.743,70.667,53.713,70.67,53.684,70.67z"/><path fill="#472b29" d="M58.936,68.956c-0.186,0-0.364-0.104-0.45-0.282c-0.121-0.249-0.017-0.548,0.231-0.668 C65.571,64.681,70,57.613,70,50c0-11.028-8.972-20-20-20c-1.225,0-2.451,0.111-3.643,0.331c-0.274,0.054-0.532-0.13-0.583-0.401 c-0.05-0.272,0.129-0.533,0.401-0.583C47.427,29.117,48.714,29,50,29c11.58,0,21,9.42,21,21c0,7.994-4.65,15.415-11.846,18.905 C59.083,68.939,59.009,68.956,58.936,68.956z"/></svg>